:SAMPLES-PER-SECOND 30
:FULLY-SPECIFIED
:DEGREES
409
root  12.8554 36.5611 -4.37243 -30.7732 -76.6002 22.35
RightUpLeg  -9.75834 -12.9318 -31.8701
RightLeg  33.9425 4.03364 2.63654
RightFoot  3.09645 -4.76962 36.4583
RightToes  -5.28226e-011 1.30204e-014 -6.03759e-014
Spine  32.5796 5.79674 22.7583
Spine1  -5.90895 14.7286 -20.7531
HEad  -3.98077 -37.6102 -10.0035
LeftShoulder1  -0.50675 6.06371 -12.7447
LeftArm  -9.58381 18.5725 -66.7453
LeftForeArm  -28.5975 -41.9863 -11.6431
LeftHand  0.140376 5.83631 33.6134
RightShoulder  2.44716 5.19067 21.9018
RightArm  -21.5508 -47.3246 27.3973
RightForeArm  -41.1304 11.5891 5.86818
RightHand  -1.61085 0.389119 -31.7502
LeftUpLeg  -25.6311 12.4584 26.531
LeftLeg  45.9745 2.22933 2.86574
LeftFoot  36.5537 12.123 -27.4728
LeftToes  -2.75829e-010 5.07641e-011 -5.51782e-011
410
root  12.8059 38.2166 -4.29479 -28.5565 -75.4675 21.4532
RightUpLeg  -6.3449 -14.5851 -32.032
RightLeg  24.2528 4.70461 2.12732
RightFoot  14.8034 -8.82958 37.3086
RightToes  -5.28226e-011 1.30204e-014 -6.03759e-014
Spine  31.8177 7.53046 22.5241
Spine1  -7.42283 15.5643 -19.0334
HEad  -0.119287 -39.4049 -12.153
LeftShoulder1  -0.761358 7.58984 -11.3154
LeftArm  -4.96355 22.2279 -69.0588
LeftForeArm  -29.0981 -42.2129 -11.756
LeftHand  0.114407 5.76065 32.8111
RightShoulder  2.38451 5.09429 21.462
RightArm  -22.6003 -48.7249 23.7238
RightForeArm  -39.4069 12.1117 4.8119
RightHand  -1.38418 0.0130517 -29.3377
LeftUpLeg  -27.8578 13.7265 24.5714
LeftLeg  44.4071 0.312811 0.698376
LeftFoot  30.0854 11.5514 -30.4842
LeftToes  -2.75829e-010 5.07641e-011 -5.51782e-011
411
root  12.7387 39.5529 -4.23824 -27.1188 -74.3792 20.9372
RightUpLeg  -3.96273 -15.615 -31.9943
RightLeg  17.1475 3.24764 0.826968
RightFoot  24.401 -11.1288 34.2607
RightToes  -5.28226e-011 1.30204e-014 -6.03759e-014
Spine  30.7507 7.78129 21.7853
Spine1  -8.06641 15.0434 -17.8779
HEad  0.404521 -39.7873 -10.6472
LeftShoulder1  -0.809706 7.8926 -11.1564
LeftArm  -1.23808 25.039 -66.8509
LeftForeArm  -27.1511 -43.5103 -12.1754
LeftHand  0.0237767 5.45632 31.6378
RightShoulder  2.45475 5.27806 21.685
RightArm  -22.9445 -47.0729 21.6606
RightForeArm  -39.4844 12.8515 4.52945
RightHand  -1.323 0.0273134 -28.018
LeftUpLeg  -28.5098 13.6686 23.3587
LeftLeg  41.5196 2.13724 2.40836
LeftFoot  25.5062 10.7685 -32.0717
LeftToes  -2.75829e-010 5.07641e-011 -5.51782e-011
412
root  12.7188 40.5192 -4.26137 -26.2931 -73.542 20.611
RightUpLeg  -2.68215 -16.0962 -31.2522
RightLeg  13.889 -1.13969 -1.20308
RightFoot  29.812 -9.94103 26.6314
RightToes  -5.28226e-011 1.30204e-014 -6.03759e-014
Spine  29.6742 7.20912 21.7967
Spine1  -7.36713 14.3934 -18.2931
HEad  -0.262055 -40.2007 -8.13858
LeftShoulder1  -0.752228 7.54046 -11.3537
LeftArm  1.2748 25.5685 -63.258
LeftForeArm  -26.4081 -44.4264 -12.5037
LeftHand  0.0104593 5.40825 31.6166
RightShoulder  2.63905 5.67062 22.5667
RightArm  -21.5189 -44.1418 19.9749
RightForeArm  -40.6246 12.2427 4.81604
RightHand  -1.37776 0.290636 -27.832
LeftUpLeg  -28.2792 12.0021 22.9905
LeftLeg  37.8875 1.81864 1.91649
LeftFoot  25.0419 9.75997 -29.6325
LeftToes  -2.75829e-010 5.07641e-011 -5.51782e-011
413
root  12.7776 40.952 -4.35022 -26.7978 -72.5813 21.1932
RightUpLeg  -2.15544 -14.0593 -30.8753
RightLeg  14.542 -7.81216 -3.26116
RightFoot  32.252 -7.89958 20.1528
RightToes  -5.28226e-011 1.30204e-014 -6.03759e-014
Spine  29.2966 6.99944 21.6522
Spine1  -6.51834 14.2665 -18.6835
HEad  -0.0167289 -41.076 -7.36061
LeftShoulder1  -0.866264 8.53582 -9.87487
LeftArm  4.97852 23.0755 -62.4508
LeftForeArm  -29.3817 -42.1193 -11.76
LeftHand  0.0796237 5.65096 32.0601
RightShoulder  2.58103 5.85404 21.2853
RightArm  -21.3774 -43.2078 19.9796
RightForeArm  -40.1809 11.7859 4.91339
RightHand  -1.30626 0.22793 -26.6927
LeftUpLeg  -28.1242 8.98686 22.6979
LeftLeg  35.5958 -1.01318 -0.432723
LeftFoot  25.2804 8.32046 -25.2767
LeftToes  -2.75829e-010 5.07641e-011 -5.51782e-011
414
root  12.901 40.8075 -4.42576 -30.6594 -72.1013 24.9829
RightUpLeg  -3.23931 -10.7935 -31.533
RightLeg  18.3419 -13.5314 -5.29594
RightFoot  33.7706 -7.92089 19.505
RightToes  -5.28226e-011 1.30204e-014 -6.03759e-014
Spine  30.114 7.50924 21.2452
Spine1  -6.53835 14.9147 -19.3423
HEad  0.297838 -42.7774 -7.23265
LeftShoulder1  -1.02892 9.87138 -8.47246
LeftArm  8.60381 18.2703 -62.9688
LeftForeArm  -33.0644 -37.286 -10.1774
LeftHand  0.218459 6.13438 32.2794
RightShoulder  2.17671 5.20521 18.4899
RightArm  -22.1429 -43.5154 20.5614
RightForeArm  -39.5688 11.3064 4.64274
RightHand  -1.16634 -0.0172703 -25.0203
LeftUpLeg  -27.4138 7.33004 21.7552
LeftLeg  34.6976 -1.87905 -1.05198
LeftFoot  24.5252 7.89988 -24.592
LeftToes  -2.75829e-010 5.07641e-011 -5.51782e-011
415
root  13.0257 40.2755 -4.5133 -38.4028 -73.4062 33.2483
RightUpLeg  -7.26857 -9.06181 -31.6677
RightLeg  23.9297 -17.2315 -8.39065
RightFoot  32.895 -8.57039 21.4887
RightToes  -5.28226e-011 1.30204e-014 -6.03759e-014
Spine  31.1759 7.74549 20.4228
Spine1  -7.47 15.2024 -20.9562
HEad  -0.872621 -42.2961 -6.3142
LeftShoulder1  -0.684841 7.44566 -10.4227
LeftArm  5.30933 16.7451 -58.8676
LeftForeArm  -34.6523 -36.1566 -9.89827
LeftHand  0.443731 6.91062 32.5468
RightShoulder  1.66995 3.4648 17.4558
RightArm  -21.7847 -40.1316 19.5936
RightForeArm  -41.7733 11.8034 4.82986
RightHand  -1.21257 0.0980144 -25.4031
LeftUpLeg  -24.8252 9.60722 21.0711
LeftLeg  32.7138 -0.868392 -0.2544
LeftFoot  24.1903 9.71373 -30.1635
LeftToes  -2.75829e-010 5.07641e-011 -5.51782e-011
416
root  13.0715 39.4684 -4.737 -46.8818 -76.0045 42.8708
RightUpLeg  -12.6714 -6.96108 -29.7365
RightLeg  30.4442 -21.5284 -13.3312
RightFoot  26.1332 -7.48564 22.348
RightToes  -5.28226e-011 1.30204e-014 -6.03759e-014
Spine  30.7481 6.28117 16.7115
Spine1  -8.478 12.5116 -19.6854
HEad  -3.57545 -33.9454 -5.96295
LeftShoulder1  0.432044 1.57154 -14.9575
LeftArm  -4.4037 22.7778 -48.7472
LeftForeArm  -36.8963 -39.5298 -11.0627
LeftHand  0.534247 7.25059 32.1419
RightShoulder  1.16425 1.35283 17.3667
RightArm  -22.038 -29.3107 21.039
RightForeArm  -45.1458 15.3064 5.83973
RightHand  -1.48806 0.628719 -28.3117
LeftUpLeg  -20.819 14.2393 22.3973
LeftLeg  29.1569 -2.05894 -0.869623
LeftFoot  25.1498 12.3845 -36.9269
LeftToes  -2.75829e-010 5.07641e-011 -5.51782e-011
417
root  13.0429 38.3309 -5.14242 -46.8764 -77.4257 43.4412
RightUpLeg  -15.577 -4.68596 -26.9575
RightLeg  37.0685 -23.966 -18.4175
RightFoot  14.313 -5.30636 23.5276
RightToes  -5.28226e-011 1.30204e-014 -6.03759e-014
Spine  28.7697 2.62861 7.50247
Spine1  -7.94831 5.42807 -9.94222
HEad  -7.69073 -16.5193 -7.47185
LeftShoulder1  1.75294 -3.11539 -20.1424
LeftArm  -9.5543 32.2665 -37.2014
LeftForeArm  -41.7117 -37.9799 -10.7407
LeftHand  0.235474 6.26218 29.844
RightShoulder  0.738236 -0.201485 15.7431
RightArm  -25.3276 -12.7916 30.3444
RightForeArm  -43.8785 20.5853 6.5388
RightHand  -1.81857 1.13336 -31.8113
LeftUpLeg  -18.0166 16.5275 25.5902
LeftLeg  26.7227 -6.1936 -3.06929
LeftFoot  27.8553 13.1997 -36.5788
LeftToes  -2.75829e-010 5.07641e-011 -5.51782e-011
